<svg width="792" height="476" viewBox="0 0 792 476" fill="none" xmlns="http://www.w3.org/2000/svg">
<path d="M105.542 473.983C84.4337 473.983 65.9176 469.719 49.9936 461.185C34.4401 452.283 22.2194 438.928 13.3316 421.123C4.44388 402.948 0 380.135 0 352.683V191.323H46.6607V347.676C46.6607 376.24 52.7711 397.753 64.9917 412.22C77.2124 426.687 94.8028 433.921 117.763 433.921C133.687 433.921 147.759 430.026 159.98 422.236C172.571 414.446 182.384 403.133 189.42 388.294C196.827 373.458 200.53 355.465 200.53 334.322V191.323H247.191V467.306H206.085L201.641 423.905H199.419C190.161 438.744 177.57 450.8 161.646 460.072C146.093 469.347 127.391 473.983 105.542 473.983Z" fill="#BABAE6"/>
<path d="M294.147 467.306V77.8127H340.807V467.306H294.147Z" fill="#BABAE6"/>
<path d="M497.359 467.306C480.694 467.306 466.251 464.711 454.031 459.516C441.81 454.324 432.367 445.606 425.701 433.364C419.406 420.754 416.258 403.874 416.258 382.73V224.707H368.486V191.323H416.258L421.813 125.109H462.919V191.323H544.019V224.707H462.919V382.73C462.919 402.02 466.436 415.002 473.473 421.679C480.51 427.987 492.915 431.139 510.69 431.139H539.575V467.306H497.359Z" fill="#BABAE6"/>
<path d="M751.225 19.0574C777.205 12.409 799.618 38.3139 789.354 63.1263L681.762 323.229C672.499 345.623 642.943 350.418 627.094 332.099L577.441 274.705C565.264 260.63 575.243 238.736 593.839 238.736H627.669C639.653 238.736 649.368 229.004 649.368 217V193.038C649.368 181.034 639.653 171.303 627.669 171.303H525.699C513.714 171.303 504 161.572 504 149.568V99.2074C504 89.2755 510.72 80.607 520.328 78.1486L751.225 19.0574Z" fill="#BABAE6"/>
</svg>
